<svg width="50" height="50" viewBox="0 0 50 50" fill="none" xmlns="http://www.w3.org/2000/svg">
<rect width="50" height="50" rx="25" fill="white"/>
<path d="M10.1199 28.37L25.1124 10.1923C25.4123 9.8093 26.037 10.0391 26.037 10.5242V19.4343C26.037 20.1747 26.6117 20.7619 27.3363 20.7619H39.4803C39.9301 20.7619 40.155 21.2981 39.8801 21.63L24.8876 39.8077C24.5877 40.1907 23.963 39.9609 23.963 39.4758V30.5912C23.963 29.8508 23.3883 29.2636 22.6637 29.2636H10.5197C10.0699 29.2636 9.845 28.7275 10.1199 28.37Z" fill="#FEBA57"/>
<path d="M33.309 17.5706C35.034 17.5706 36.4324 16.1418 36.4324 14.3793C36.4324 12.6168 35.034 11.188 33.309 11.188C31.584 11.188 30.1855 12.6168 30.1855 14.3793C30.1855 16.1418 31.584 17.5706 33.309 17.5706Z" fill="#4DB7C6"/>
<path d="M16.1167 32.1743L13.418 36.9485C13.2181 37.306 13.468 37.74 13.8678 37.74H19.2651C19.6649 37.74 19.9148 37.306 19.7149 36.9485L17.0162 32.1743C16.8163 31.8169 16.3166 31.8169 16.1167 32.1743Z" fill="#ED7EA6"/>
</svg>
