<svg width="50" height="50" viewBox="0 0 50 50" fill="none" xmlns="http://www.w3.org/2000/svg">
<rect width="50" height="50" rx="25" fill="white"/>
<path d="M20.3941 23.5372C22.5124 23.5372 24.2296 21.82 24.2296 19.7017C24.2296 17.5834 22.5124 15.8662 20.3941 15.8662C18.2758 15.8662 16.5586 17.5834 16.5586 19.7017C16.5586 21.82 18.2758 23.5372 20.3941 23.5372Z" fill="#ED7EA6"/>
<path d="M26.7125 17.671C28.8308 17.671 30.548 15.9538 30.548 13.8355C30.548 11.7172 28.8308 10 26.7125 10C24.5942 10 22.877 11.7172 22.877 13.8355C22.877 15.9538 24.5942 17.671 26.7125 17.671Z" fill="#4DB7C6"/>
<path d="M30.0211 25.9435C32.1394 25.9435 33.8566 24.2263 33.8566 22.108C33.8566 19.9897 32.1394 18.2725 30.0211 18.2725C27.9028 18.2725 26.1855 19.9897 26.1855 22.108C26.1855 24.2263 27.9028 25.9435 30.0211 25.9435Z" fill="#FEBA57"/>
<path d="M34.2744 20.5H15.8596C14.5305 20.5 13.4531 21.5774 13.4531 22.9065C13.4531 23.4058 13.6085 23.8928 13.8976 24.2999L21.0114 34.3162C21.7616 35.3725 22.977 36 24.2726 36H26.2296C27.5563 36 28.7967 35.3422 29.5409 34.2438L36.285 24.2911C36.5575 23.889 36.7031 23.4144 36.7031 22.9287C36.7031 21.5874 35.6158 20.5 34.2744 20.5Z" fill="#787EFF"/>
<rect x="21.9531" y="36.75" width="6.75" height="3.25" rx="1.625" fill="#787EFF"/>
</svg>
