<svg width="50" height="50" viewBox="0 0 50 50" fill="none" xmlns="http://www.w3.org/2000/svg">
<rect width="50" height="50" rx="25" fill="white"/>
<path d="M20.0192 33.7456C19.7195 31.4975 21.4684 29.5 23.7363 29.5H26.4199C28.6879 29.5 30.4368 31.4975 30.137 33.7456C29.8886 35.6086 28.2994 37 26.4199 37H23.7363C21.8568 37 20.2676 35.6086 20.0192 33.7456Z" fill="#EA4C89"/>
<path fill-rule="evenodd" clip-rule="evenodd" d="M32.7724 25.0452C33.7919 23.5613 34.4529 21.8314 34.4529 19.9844C34.4529 14.4702 30.1437 10 24.828 10C19.5123 10 15.2031 14.4702 15.2031 19.9844C15.2031 22.1779 15.9751 24.1343 17.2037 25.7238C17.1899 26.0339 17.2492 26.3548 17.3951 26.664L19.0762 30.2265C19.4065 30.9264 20.1109 31.373 20.8849 31.373H29.179C29.9983 31.373 30.7347 30.8733 31.0375 30.1121L32.6481 26.0625C32.7838 25.7214 32.819 25.3735 32.7724 25.0452Z" fill="#FFD469"/>
<rect x="20.9531" y="37.75" width="8" height="2" rx="0.999999" fill="#EA4C89"/>
<rect x="23.9531" y="30.75" width="8" height="2" rx="1" transform="rotate(-90 23.9531 30.75)" fill="#EA4C89"/>
<path d="M24.9531 24.75C26.0577 24.75 26.9531 23.8546 26.9531 22.75C26.9531 21.6454 26.0577 20.75 24.9531 20.75C23.8486 20.75 22.9531 21.6454 22.9531 22.75C22.9531 23.8546 23.8486 24.75 24.9531 24.75Z" fill="#EA4C89"/>
</svg>
