<svg width="50" height="50" viewBox="0 0 50 50" fill="none" xmlns="http://www.w3.org/2000/svg">
<rect width="50" height="50" rx="25" fill="white"/>
<path fill-rule="evenodd" clip-rule="evenodd" d="M25 40C33.2843 40 40 33.2843 40 25C40 16.7157 33.2843 10 25 10C16.7157 10 10 16.7157 10 25C10 33.2843 16.7157 40 25 40ZM25.8173 31.8364V34.1686H24.5415V31.8364C21.0332 31.6171 19.1196 29.843 19 27.152H22.2492C22.4086 28.4078 23.1462 29.1653 24.5415 29.3646V25.6968L24.4618 25.6769C21.6512 24.9593 19.4385 24.3414 19.4385 21.3912C19.4385 18.8198 21.6512 17.4444 24.5415 17.3048V15.75H25.8173V17.3447C28.7276 17.564 30.5216 19.0191 30.6811 21.4909H27.6113C27.4718 20.554 26.8538 19.956 25.8173 19.7566V23.1055L26.0764 23.1653C28.8472 23.843 31 24.6603 31 27.4909C31 30.2018 28.7874 31.6968 25.8173 31.8364ZM25.8173 29.3646C26.8738 29.2251 27.7508 28.6669 27.7508 27.6902C27.7508 26.7733 27.093 26.4145 25.8173 26.0357V29.3646ZM24.5415 19.6968C23.3455 19.8164 22.6678 20.4145 22.6678 21.2317C22.6678 22.049 23.2259 22.4078 24.5415 22.7666V19.6968Z" fill="#4DB7C6"/>
</svg>
