<svg width="44" height="44" viewBox="0 0 44 44" fill="none" xmlns="http://www.w3.org/2000/svg">
<path d="M29.2395 21.9044C29.2395 23.8915 30.1763 25.4102 32.0073 25.4102C33.824 25.4102 34.7324 23.8915 34.7324 21.9044C34.7324 19.9031 33.824 18.356 32.0073 18.356C30.1763 18.356 29.2395 19.9031 29.2395 21.9044Z" fill="white"/>
<path d="M9.78882 18.6399H11.8611C12.8546 18.6399 13.4224 19.165 13.4224 20.0876C13.4224 20.9818 12.8688 21.5637 11.8469 21.5637H9.78882V18.6399Z" fill="white"/>
<path d="M19.4766 18.4979H21.6908C22.7553 18.4979 23.2805 19.0657 23.2805 19.9315C23.2805 20.7689 22.6985 21.3224 21.6198 21.3224H19.4766V18.4979Z" fill="white"/>
<path fill-rule="evenodd" clip-rule="evenodd" d="M3.66667 11C1.64162 11 0 12.6416 0 14.6667V29.3333C0 31.3584 1.64162 33 3.66667 33H40.3333C42.3584 33 44 31.3584 44 29.3333V14.6667C44 12.6416 42.3584 11 40.3333 11H3.66667ZM37.2021 21.9044C37.2021 25.0553 35.1866 27.3973 31.9931 27.3973C28.7853 27.3973 26.7698 25.0553 26.7698 21.9044C26.7698 18.7392 28.7853 16.3973 31.9931 16.3973C35.1866 16.3973 37.2021 18.7392 37.2021 21.9044ZM12.3153 23.4799C14.5011 23.4799 15.8637 22.0889 15.8637 20.0876C15.8637 19.0515 15.4946 18.1999 14.8559 17.5611C14.2172 16.9224 13.2804 16.5818 12.0314 16.5818H7.33333V27.1418H9.78882V23.4799H12.3153ZM21.265 23.1108C22.4288 23.1108 22.954 23.6502 23.0817 24.7005C23.1183 25.0335 23.1421 25.3631 23.164 25.6675C23.2188 26.427 23.2623 27.0303 23.465 27.1418H25.8495V27.0282C25.6265 26.9353 25.586 26.3922 25.5288 25.6259C25.4987 25.2217 25.4639 24.7555 25.3953 24.2605C25.2534 23.125 24.785 22.5431 23.7346 22.2166V22.1741C25.083 21.7341 25.6934 20.8399 25.6934 19.605C25.6934 17.6747 24.1463 16.5818 22.0882 16.5818H17.0637V27.1418H19.4766V23.1108H21.265Z" fill="white"/>
</svg>
